<svg xmlns="http://www.w3.org/2000/svg" viewBox="0 0 501.72 528.59"><defs><style>.cls-1{fill:#fff;}.cls-2{fill:#e4251a;}.cls-3{fill:#e51d46;}.cls-4{fill:none;stroke:#000;stroke-miterlimit:10;}</style></defs><title>fox</title><g id="cor"><g id="Camada_4" data-name="Camada 4"><polygon points="163.12 17.11 149.32 6.14 138.5 0.99 125.62 3.52 120.44 9.05 116.91 17.11 112.94 29.26 109.45 44.1 99.93 50.12 79.77 67.31 73.27 74.01 57.74 92.04 37.63 120.91 27.54 140.81 18.13 159.91 12.64 176.69 5.83 200.15 3.03 218.94 1 235.88 1.05 249.43 1.23 266.77 1.93 282.83 3.83 300.77 6.31 313.52 8.92 323.48 12.11 331.46 18.32 347.09 31.75 325.47 38.04 316.67 47.91 306.46 58.48 296.95 74.88 289.58 91.49 285.89 104.64 284.99 118.59 285.9 129.41 287.79 138.94 290.62 146.48 295.79 155.25 299.98 157.81 297.9 164.61 280.11 187.38 286.31 216.38 291.31 241.33 292.81 271.15 293.14 301.74 289.99 326.68 284.03 337.8 280.59 342.56 290.52 347.55 300.4 356.74 294.35 372.12 288.67 378.99 286.49 394.25 284.69 406.09 285.01 416.7 287.68 428.1 290.45 439.95 295.97 455.64 308 462.39 316.33 469.87 326.33 471.37 327.35 474.62 333.47 479.36 342.46 482.35 347.39 483.95 343.76 488.25 332.57 490.46 324.99 493.01 315.46 495.41 306.57 497.49 297.09 498.93 284.95 500.2 271 501.22 257.74 500.59 241.08 499.39 230.88 498.09 214.22 496.04 201.44 492.66 190.28 487.83 174.66 481.98 156.04 478.69 149.56 465.96 125.45 457.82 110.73 455.26 107.28 442.25 90.56 431.75 77.5 420.86 67.14 411.32 58.95 400.25 49.7 391.39 42.85 388.4 25.36 383.28 11.08 375.46 3.12 371.3 1.13 363.61 0.99 348.5 9.07 341.22 15.04 337.24 17.74 330.77 14.67 323.08 11.91 292.29 5.46 259.97 1.42 239.67 1.1 215.54 3.22 188.21 8.97 172.74 13.91 163.12 17.11"/></g><g id="Camada_5" data-name="Camada 5"><polygon points="163.59 277.81 163.59 283.05 157.75 297.31 156.23 300.16 140.64 291.43 129.32 286.7 111.32 284.99 94.75 284.99 77.1 288.4 57.77 297.66 44.7 308.95 32.74 325.17 16.97 349.56 12.59 362.15 12.69 372.08 8.02 379.78 6.74 384.04 6.74 462.81 6.47 497.27 8.08 501.75 13.35 511.47 17.55 515.53 22.93 518.13 34.95 519.75 60.86 520.53 72.59 519.13 81.41 516.52 87.31 511.13 91.71 505.15 94.37 498.55 95.19 494.04 95.07 487.52 95.19 486.11 109.57 486.8 120.98 486.35 133.55 482.96 142.24 477.69 144.37 475.88 147.93 481.46 157.72 493.55 165.38 500.85 175.91 508.85 187.25 515.49 202.48 521.86 213.93 525 225.68 526.91 245.37 527.62 259.58 525.85 271.64 523.23 290.28 517.47 300 512.06 308.49 506.52 313.26 501.6 318.56 508.46 327.62 516.6 334.6 519.97 354.2 520.57 372.14 519.99 380.48 519.08 387.09 515.66 395.54 509.38 404.07 499.89 416.56 511.74 425.61 519.37 443.07 519.97 466.48 519.97 477.65 518.08 484.38 514.27 491.3 505.08 494.28 494.06 492.7 486.31 485.64 476.22 461.49 449.89 454.1 441.36 462.33 433.71 471.91 423.58 484.26 410.53 492 401.22 494.87 395.2 495.86 384.87 493.98 377.56 491.07 371.68 488.64 370.86 489.05 361.96 481.99 345.9 470.47 326.3 468.71 324.71 458.94 312.23 448.06 301.14 435.77 293.65 417.32 286.7 404.52 284.3 394.15 284.3 381.28 286.21 368.67 289.38 354.86 295.88 341.13 275.12 217.45 284.99 163.59 277.81"/></g><polygon class="cls-1" points="239.08 202.02 250.97 199.38 262.93 201.79 263.15 190.11 267.48 173.61 275.37 161.29 284.75 153.22 297.33 147.52 309.41 145.71 320.61 146.62 333.54 152.57 347.73 163.57 359.87 177.43 367.18 184.58 377.83 191.51 389.72 198.08 399.5 200.71 401 200.74 399.41 209.38 390.58 224.81 381.63 235.24 373.45 242.71 351 257.34 331.68 265.94 296.88 274.1 281.49 276.86 250.69 277.81 226.54 276.4 206.51 273.6 174.97 265.68 147.35 255.19 132.43 246.52 123.18 238.75 112.1 225.59 105.05 213.43 101.5 204.9 101.6 200.71 112.55 197.76 122.11 193.22 132.87 185.7 152.4 166.85 159.13 158.65 173.4 149.56 188.57 146.29 198.4 146.37 210.23 148.79 219.29 153.01 227.75 160.09 234.26 169.32 238.38 180.38 240.08 191.53 239.08 202.02"/><polygon class="cls-2" points="122.11 193.22 123.34 186.21 129.25 171.76 136.15 159.17 146.88 142.16 160.51 126.86 181.51 108.46 198.89 99.25 219.8 90.52 239.09 87.31 259.39 87.31 274.58 89.73 286.2 92.94 290.64 94.71 306.27 73.35 327.17 50.23 342.92 35.66 352.8 28.71 365.13 21.7 368.47 30.77 372.63 44.89 375.59 59.09 375.75 62.57 371.79 62.77 369.41 62.77 366.32 47.68 361.81 40.73 355.4 45.73 344.88 56.68 339.88 61.97 332.82 68.98 326.19 75.94 321.43 82.96 316.43 90.78 311.94 103.48 325.13 112.4 338.18 124.42 352.92 140.24 363.01 153.31 368.59 162.04 372.87 170.06 376.3 176.56 378.7 184.81 380.8 193.15 374.52 190.02 363.83 182.18 354.08 170.15 340.42 157.11 326.7 149.06 317.79 146.39 307.57 145.71 300.86 146.89 292.54 149.03 287.48 151.98 280.08 156.67 272.55 164.42 267.44 173 263.55 184.62 262.93 193.76 263.24 202.14 257.31 199.74 246.32 200.06 238.36 201.9 239.66 194.11 238.24 177.66 230.34 162.04 219.83 153.54 211.87 149.98 199.39 146.65 186.2 146.65 174.92 148.38 163.51 155.09 153.51 165.51 143.19 176.53 127.81 189.43 122.11 193.22"/><polygon points="299.41 174.04 293.81 179.19 290.68 184.36 289.57 187.38 288.62 193.59 289.54 200.71 292.19 207.09 296.94 212.3 304.46 216.95 311.3 218.31 319.08 217.47 324.89 214.62 330.95 210.05 334.17 204.91 336.49 197.45 336.72 190.24 334.41 183.82 330.99 178.53 327.2 174.94 324.03 172.91 319.8 171.14 316.03 170.29 311.55 170.06 305.58 171.12 301.88 172.61 299.41 174.04"/><polygon points="209.52 180.31 204.82 175.31 198.15 171.54 191.94 170.15 185.93 170.37 180.6 171.89 174.11 175.64 168.84 182.34 167.19 186.43 166.03 190.53 166.03 196.53 167.12 202.07 169.84 208.17 173.65 211.92 177.59 214.5 183.2 217.24 190.87 218.45 196.11 217.33 202.81 214.35 206.91 211.03 209.81 207.49 212.97 201.66 213.87 196.5 213.71 189.37 211.24 182.71 209.52 180.31"/><polygon class="cls-1" points="188.1 177.92 186.37 179.52 185.48 181.22 185.28 183.28 185.86 186.21 187.77 188.42 189.82 189.6 192.19 189.6 194.44 188.86 196.42 187.62 197.61 184.75 197.79 182.18 196.51 179.02 193.7 177.36 191.46 176.95 189.04 177.43 188.1 177.92"/><polygon class="cls-1" points="309.2 176.79 306.58 178.22 305.15 180 304.3 182.18 304.3 183.65 304.64 185.4 305.68 187.35 307.29 188.88 309.68 190.02 312.17 189.93 315.47 188.77 317.17 186.11 317.96 183.28 316.88 179.9 314.4 177.14 310.48 176.56 309.2 176.79"/><polygon points="238.71 221.92 235.74 226.19 236.97 232.52 242.2 238.2 248.03 242.74 248.46 247.76 243.57 250.53 234.49 250.28 229.71 247.44 229.4 251.98 231.6 254.47 240.8 256.14 249.08 253.82 252.78 252.54 257.24 256.36 264.05 256.36 269.94 255.75 274.13 253.06 276.21 245.36 267.44 250.26 259.51 250.88 254.7 244.02 254.61 238.14 265.14 233.52 268.34 228.54 267.17 223.96 261.12 219.6 251.85 217.64 243.57 218.45 238.71 221.92"/><polygon points="183.27 141.28 187.78 140.64 195.28 141.47 203.19 143.58 206.7 143.55 209.19 141.46 208.45 137.51 203.37 132.81 196.78 132.15 191.53 132.88 188.02 134.44 185.13 136.38 183.27 141.28"/><polygon points="315.27 132.37 310.21 131.68 298.21 134.83 294.54 137.67 294.54 140.21 295.45 143.04 298.99 143.04 304.9 141.79 312.17 140.65 318.32 140.45 320.6 140.83 320.01 137.36 317.14 133.61 315.27 132.37"/><polygon class="cls-2" points="125.62 63.68 130.39 61.46 132.63 61.46 135.92 49.1 140.44 41.61 148.76 47.59 158.35 56.03 166.4 65.33 175.36 76.97 181.44 86.2 186 94.95 189.07 103.15 191.04 103.15 199.67 98.92 209.13 94.3 207.2 89.56 198.25 75.72 187.61 64.28 167.37 44.95 149.28 30.84 136.85 22.03 132.93 27.93 129.75 38.85 126.65 51.53 125.62 63.68"/><polygon class="cls-3" points="180.19 31.87 187.08 36.42 194.39 43.23 203.91 53.62 209.13 60.24 216.95 72.27 224.76 70.54 242.04 68.98 255.59 69.26 271.5 70.54 282.26 72.43 291.33 59.14 304.76 44.42 321.34 31 304.16 25.93 278.96 20.7 247.93 19.33 224.99 20.24 213.35 22.45 185.55 29.62 180.19 31.87"/><polygon class="cls-3" points="107.37 70.54 94.23 80.35 80.63 94.64 72.06 105.28 61.04 119.24 53.46 131.38 43.26 150.58 35.63 164.94 32.44 175.76 24.76 204.3 21.72 221.59 19.95 237 19.95 249.37 19.5 259.7 19.55 269.2 20.8 280.7 22.45 293.14 24.74 307.98 28.56 320.95 31.65 326.82 40.83 313.99 49.52 304.75 59.83 296.77 71.5 290.85 82.44 287.66 93.37 285.61 105.89 284.99 119.11 285.94 129.41 287.79 136.17 289.76 146.48 295.18 154.35 299.45 156.86 299.62 164.61 280.11 135.83 268.08 114.62 255.25 104.1 245.62 94.3 231.01 87.35 215.86 82.68 200.96 83.43 193.59 88.29 187.35 97.08 182.63 108.27 179.96 109.14 173.41 117.42 154.19 122.11 147.94 113.46 126.22 108.23 103.92 106.15 81.93 107.37 70.54"/><polygon class="cls-3" points="337.8 280.59 343.77 293.14 346.9 299.94 350.81 298.32 364.15 291.28 378.61 286.55 389.83 285 400.09 284.29 416.13 286.99 429.82 291.13 446.83 300.88 456.21 309.22 463.31 317.39 469.07 325.2 471.23 326.89 475.24 310.01 478.72 294.86 480.36 277.13 481.27 260.83 481.27 230.29 479.88 223.11 479.55 214.08 475.75 200.42 470.59 178.68 466.9 167.98 450.86 137.98 440.52 119.39 429.1 104.5 418.39 92.52 408.38 81.77 397.44 72.22 394.54 69.26 395.61 76.67 394.18 94.61 393.35 105.31 391.15 117.72 384.86 139.47 379.64 147.16 382.72 153.49 388.6 166.02 393.45 180.46 403.69 182.48 414.74 187.64 418.9 195.78 419.43 203.56 413.85 218.3 404.1 235.35 387.53 254.06 370.36 264.75 358.78 272.18 337.8 280.59"/><polygon class="cls-1" points="184.78 92.61 181.81 95.58 176.73 97.26 173.93 97.43 167.62 90.55 160.56 83.61 155.44 80.97 151.54 82.09 150.62 84.34 153.92 93.12 157.65 100.25 159.02 105.28 150.5 110.38 151.69 113.39 150.5 117.66 144.85 123 140.44 129.71 137.67 136.76 132.15 124.26 126.98 105.28 124.75 84.25 124.75 63.68 129.15 61.46 133.06 61.32 135.38 49.76 140.44 41.61 147.85 46.94 158.35 56.03 166.4 65.33 175.36 76.97 180.19 84.31 184.78 92.61"/><polygon class="cls-1" points="375.75 62.57 369.41 62.77 368.06 54.25 364.24 43.97 361.81 40.73 352.18 48.63 342.32 60.28 330.92 70.02 322.77 80.82 316.13 93.04 319.93 94.71 326.7 98.72 333.77 91.53 340.06 85.47 345.94 81.38 350.63 82 351.72 85.7 348.31 93.5 343.76 103.48 343.63 105.1 349.24 106.78 351.55 109.88 351.67 112.77 351 115.98 353.7 119.83 357.44 124.5 361.73 130.43 365.79 136.07 368.06 128.22 370.23 122.58 372.98 112.37 374.92 102.31 376.43 88.4 376.43 74.18 375.75 62.57"/><polygon class="cls-1" points="201.55 288.6 201.55 288.6 200.29 294.4 198.87 301.58 197.97 310.87 198.09 319.1 200.2 329.79 204.86 342.37 210.5 350.95 214.06 353.98 221.63 351.64 232.15 349.62 242.22 349.29 254.46 349.64 262.63 351.49 268.81 352.06 277.64 354.84 285.5 358.48 289.33 354.83 295.06 347.09 300.49 334.03 304.06 324.27 305.36 311.83 304.78 300.24 301.48 289.34 285.6 291.65 265.84 293.03 251.11 293.14 230.37 292.14 212.91 290.54 201.55 288.6"/><polygon class="cls-2" points="163.37 380.3 167.3 374.66 177.82 368 189.05 362.15 198.87 356.53 193.69 350.13 188.86 340.29 185.83 324.64 186.58 309.56 188.99 297.83 193.79 287.42 182.53 284.99 178.66 292.54 170.19 311.18 166.51 322.61 163.22 337.73 162 347.39 161.42 366.57 162.32 373.94 163.37 380.3"/><polygon class="cls-2" points="297.84 365.26 306.64 370.82 315.5 379.22 318.68 373.43 326 366.26 332.92 363.06 340.9 361.93 342.56 362 341.29 348.38 338.99 325.35 332.92 305.03 323.13 288.21 320.66 285.92 309.43 288.15 310.48 291.96 313.45 297.19 315.46 303.25 316.27 314.18 315.35 330.46 313.69 343.17 309.29 353.51 304.42 359.56 297.84 365.26"/><polygon class="cls-2" points="406.16 381.27 411.85 374.09 419.7 367.76 424.74 363.69 420.69 360.1 416 358.62 404.52 356.19 395.41 355.05 392.41 353.98 392.1 351.44 396.45 345.06 404.19 336.47 402.52 335.05 391.15 333.84 385.86 333.84 383.67 332.57 385.76 329.62 397.28 322.96 406.77 315.08 409.45 311.8 401.01 310.87 389.26 311.97 376.33 315.25 363.6 320.4 355.67 323.92 358.09 330.7 359.86 342.22 360.74 353.03 359.86 361.5 374.52 361.23 383.18 362.03 390.2 364.44 396.5 368.6 400.54 374.06 406.16 381.27"/><polygon class="cls-2" points="81.65 362.15 102.5 360.34 115.51 360.66 130.06 361.42 142.47 363.56 141.31 356.24 141.7 345.45 146.59 326.47 142.23 323.29 124.85 315.33 112.56 311.88 105.12 311.31 110.46 315.84 115.09 321.55 117.83 328.2 117.83 332.12 114.97 333.66 106.72 333.37 96.8 331.46 96.68 333.66 100.66 337.44 105.89 343.35 108.11 347.09 108.68 350.12 107.55 352.5 104.58 354.22 95.61 355.29 81.65 360.64 81.65 362.15"/><polygon points="80.4 361.42 67.5 361.35 68.4 358.02 77.63 351.13 88.72 347.39 93.97 346.41 85.69 337.72 79.12 329.03 87.43 324.54 100.3 321.07 91.73 315.25 86.76 312.25 97.21 309.78 107.02 312.46 111.87 317.01 115.45 323.56 117.83 331.05 117 333.55 110.34 333.43 103.33 332.54 97.15 332.06 96.68 333.66 99.27 336.12 105.47 342.4 107.91 346.56 108.14 351.61 105.23 354.22 93.29 356.54 81.94 360.28 80.4 361.42"/><path class="cls-1" d="M201,477.28c.18-.51,3.62-8.53,3.62-8.53l-14.05-7.44-18.64-6-10.6-1.54-17.2.74-12.18,4.72-17,12.47-12.18,12.81-8,11.42-5.17,9.91-2.77,6.84,14.25.77,15.33.46,6.23-2.64,2.94-5.17,12-5.79L148,498.15,140.35,490l-7.13-8.2.62-2.14,11.72-4.78,8.24-2-8-5.94-5-3,9.06-2.14,10.52.64,10,1.52,14.25,5.44L196.3,475Z" transform="translate(-54.06 -151.74)"/><polygon class="cls-1" points="355.67 323.92 370.46 317.4 388.42 312.04 403.87 310.87 409.45 311.8 414.44 311.77 421.33 313.1 423.94 315.31 423.98 316.8 419.28 318.97 412.39 322.93 408.94 326.27 418.25 328.52 421.13 329.7 421.88 330.64 419.08 334.38 412.53 340.65 409.16 346.07 411.23 346.79 420.5 349.36 427.44 353.53 431.22 357.71 432.01 360.89 451.39 361.84 468.03 361.89 465.05 352.12 457.32 338.21 446.88 325.93 433.45 314.38 424.74 308.6 405.53 304.34 388.64 304.88 373.23 307.99 357.47 314.05 352.13 316.83 355.67 323.92"/><polygon class="cls-1" points="24.17 488.45 25.53 466.79 24.85 423.93 25.53 389.98 26.54 385.44 30.77 380.3 34.01 379.3 52.33 379.63 73.72 380.3 115.06 380.22 137.61 380.3 141.48 383.05 144.48 386.77 146.35 390.93 147.22 395.77 146.42 401.92 143.49 408.96 134.58 414.21 122.1 416.31 106.63 415.78 91 416.31 77.02 416.18 76.67 423.13 76.81 432.2 82.82 432.67 97.06 432.21 115.15 432.64 124.98 433.52 131.64 436.41 136.93 446.39 136.93 452.36 131.91 461.38 125.22 466.88 114.26 469.02 100.36 468.4 76.53 468.3 76.53 480.61 75.68 490.24 73 495.75 69.06 500.62 64.81 502.43 45.92 502.88 38.16 502.43 32.54 501.75 28.3 498.85 24.68 492.37 24.17 488.45"/><polygon class="cls-1" points="154.72 435.07 156.01 425.57 158.57 416.64 163.38 406.41 168.47 398.81 175.97 390.45 185.66 382.49 195.23 376.68 205.33 372.17 219.12 368.16 229.51 366.55 239.25 366.04 248.53 366.43 256.44 367.44 265.9 369.54 278.92 374.18 287.13 378.34 296.7 384.71 304.83 391.89 312.6 401.17 318.04 410.29 321.91 420.03 323.29 425.43 324.14 430.52 324.62 438.75 323.98 447.11 321.5 457.63 318 466.16 310.89 477.52 303.91 485.68 296.89 491.68 282.81 500.35 269.4 506.06 252.38 509.54 244.41 510.23 232.51 510.23 219.4 508.27 205.06 504.44 188.46 495.76 179.12 488.8 169.39 478.74 162.05 468.02 158.62 460.2 155.34 447.77 154.9 437.54 154.72 435.07"/><polygon class="cls-1" points="380.69 441.41 364.81 457.94 351.65 471.35 342.35 480.92 336 488.38 332.94 492.72 333.59 495.83 335.07 499.32 337.21 501.22 340.6 502.73 374.73 502.73 404.12 472.07 405.05 472.2 433.57 502.73 445.75 502.73 466.15 502.73 468.02 502.73 471.76 499.31 473.64 496.23 474.03 492.6 472.35 489.63 428.7 441.19 445.84 423.66 460.79 408.41 469.85 399.2 473.33 395.41 475.93 391.21 476.7 388.91 475.89 385.05 474.17 381.99 470.25 380.5 433.36 380.5 418.48 396.31 407.31 407.92 404.52 407.92 377.37 379.72 338.52 380.63 334.15 386.62 333.29 388.39 333.01 389.9 343.88 401.97 380.4 440.48 380.69 441.41"/><polygon points="235.27 406.38 226 409.47 218.28 414.46 213.41 421.11 210.08 428.12 209.13 432.52 209.13 438.13 209.97 446.77 212.94 451.41 216.5 457.7 222 464.15 230.37 467.24 241.54 467.89 250.36 466.35 258.08 462.69 266.52 449.8 269.07 437.8 267.65 426.63 263.19 417.19 258.02 412.5 252.86 408.93 240.44 406.17 235.27 406.38"/><path class="cls-2" d="M176.46,514.15h0l-.67-.09h0a1.85,1.85,0,0,0,1,0,1.79,1.79,0,0,0,.93-.29,1.83,1.83,0,0,0,.7-.65,1.8,1.8,0,0,0,.45-.85l.09-.66a2.43,2.43,0,0,0-.34-1.26l-.39-.51a2.5,2.5,0,0,0-1.1-.64l-.71-.1h0a2,2,0,0,0-1,.21,1.85,1.85,0,0,0-.8.52,1.88,1.88,0,0,0-.52.8,1.8,1.8,0,0,0-.21,1l.09.66a2.44,2.44,0,0,0,.64,1.11l.5.39a2.54,2.54,0,0,0,1.27.34Z" transform="translate(-54.06 -151.74)"/><path class="cls-2" d="M179,512.32v0c0-.22.07-.45.09-.68v0a2,2,0,0,0-.21-1,2,2,0,0,0-.52-.8,2.83,2.83,0,0,0-1.77-.74l-.66.09a2.5,2.5,0,0,0-1.11.65l-.39.5a2.53,2.53,0,0,0-.34,1.26v0l.09-.67v0a1.85,1.85,0,0,0,0,1,1.71,1.71,0,0,0,.3.93,1.8,1.8,0,0,0,.64.7,1.89,1.89,0,0,0,.85.45l.66.09a2.44,2.44,0,0,0,1.27-.34l.5-.39a2.52,2.52,0,0,0,.65-1.1Z" transform="translate(-54.06 -151.74)"/><path class="cls-2" d="M175.9,516.91c3.22,0,3.22-5,0-5s-3.22,5,0,5Z" transform="translate(-54.06 -151.74)"/><path d="M175.86,517.58c3.21,0,3.22-5,0-5s-3.23,5,0,5Z" transform="translate(-54.06 -151.74)"/><path d="M177.19,517.22c3.22,0,3.23-5,0-5s-3.22,5,0,5Z" transform="translate(-54.06 -151.74)"/><path d="M173.81,517.49c3.21,0,3.22-5,0-5s-3.23,5,0,5Z" transform="translate(-54.06 -151.74)"/></g><g id="traço"><path d="M306.46,391.57c-.4,3.05-.34,6,1.58,8.55a10.6,10.6,0,0,0,6.57,4.05c6.24,1.12,11.69-2.35,16.17-6.3l-3.15-.4a4.88,4.88,0,0,1-.45,5.4c-1.3,1.87-3.57,2.79-5.7,3.3-4.11,1-10.64,1.63-12.9-2.9a2,2,0,0,0-3.15-.4,10.1,10.1,0,0,1-5.6,2.74,25.25,25.25,0,0,1-8.2.82,9.08,9.08,0,0,1-5.51-2.47c-1.74-1.79-1.83-4.3-1.8-6.66l-3.73,1c4,6.53,13.48,8,20,4.44,3.09-1.7,5.15-5.52,3.47-8.91-.84-1.7-2.52-2.72-4-3.73a34.85,34.85,0,0,1-4.2-3.15c-2.68-2.43-5.29-6.44-3.58-10.16a2.06,2.06,0,0,0-.72-2.74,2,2,0,0,0-2.73.72,11.85,11.85,0,0,0,1.3,11.72,21.29,21.29,0,0,0,4.31,4.48c1.67,1.32,3.57,2.34,5.21,3.68a2.38,2.38,0,0,1,.09,3.83,9.19,9.19,0,0,1-5.2,2c-3.94.5-8.24-.63-10.41-4.19a2,2,0,0,0-3.73,1c0,3.22.36,6.41,2.5,9a12.3,12.3,0,0,0,7.33,4,27.71,27.71,0,0,0,10.37-.69c2.86-.62,5.74-1.63,7.74-3.85l-3.14-.41c3.24,6.47,12.23,6.26,18.2,4.54a12.6,12.6,0,0,0,7.6-5.39,8.74,8.74,0,0,0,.17-9A2,2,0,0,0,328,395c-3.27,2.89-7.35,5.84-12,5.32a7,7,0,0,1-4.64-2.47c-1.47-1.84-1.17-4.13-.88-6.32a2,2,0,0,0-2-2,2.05,2.05,0,0,0-2,2Z" transform="translate(-54.06 -151.74)"/><path d="M292.2,376.71c2.42-3.64,7-4.74,11.15-4.8a48.88,48.88,0,0,1,7.35.48,16.26,16.26,0,0,1,6.17,1.9c3.39,2,5.07,6.42,1.48,9.13s-8.25,3.36-11.21,6.72c-1.7,1.92,1.12,4.76,2.83,2.83a14.69,14.69,0,0,1,4.9-3.14,37.73,37.73,0,0,0,5.5-2.95c3.48-2.5,5-6.54,3.37-10.62s-5.55-6.31-9.57-7.28a39.78,39.78,0,0,0-13.66-.88c-4.68.57-9.09,2.57-11.77,6.59-1.43,2.15,2,4.15,3.46,2Z" transform="translate(-54.06 -151.74)"/><circle class="cls-4" cx="189.82" cy="194.11" r="24.05"/><circle class="cls-4" cx="312.67" cy="194.11" r="24.05"/><circle class="cls-4" cx="191.46" cy="183.28" r="6.33"/><circle class="cls-4" cx="311.04" cy="183.28" r="6.74"/><path d="M238.36,293.73c2.22-.78,5.11-.36,7.41-.08,2.53.31,5,.86,7.51,1.4,3,.66,9.65,3.15,10.83-1.43a6,6,0,0,0-1.17-5.41,16,16,0,0,0-4.85-3.55A17.51,17.51,0,0,0,246,283.48a15,15,0,0,0-6.23,3.2,12,12,0,0,0-3.35,6.07,1,1,0,0,0,1.93.53,9.61,9.61,0,0,1,3.68-5.85,14.91,14.91,0,0,1,6.79-2.46A15.42,15.42,0,0,1,261,289.06a3.76,3.76,0,0,1,1.3,3.15c0,1.51-.85,2.15-2.34,2.11-2.48-.06-5.1-1-7.52-1.5a70.31,70.31,0,0,0-7.34-1.25c-2.29-.24-5-.54-7.23.23-1.21.43-.69,2.36.53,1.93Z" transform="translate(-54.06 -151.74)"/><path d="M371.06,284c-3.12-2.24-7.6-1.64-11.11-.85s-7.81,1.77-10.78,4.13a5.51,5.51,0,0,0-.1,8.49c1.32,1.09,3.16.65,4.68.26,2-.52,3.94-1.16,6-1.59a52.48,52.48,0,0,1,7.38-1.06q1.76-.13,3.51-.15c1.09,0,2.57-.23,3.56.25a1,1,0,0,0,1.51-.86A9.78,9.78,0,0,0,371,284c-1.1-.67-2.11,1.06-1,1.73a7.71,7.71,0,0,1,3.71,6.84l1.5-.86c-1.75-.86-4.09-.57-6-.5a61.2,61.2,0,0,0-6.34.58,56.25,56.25,0,0,0-6.42,1.33c-1.53.41-5.07,2.13-6.35.82-1.79-1.84-1-4.38,1-5.6a22.09,22.09,0,0,1,5.73-2.37c3.92-1.11,9.57-2.93,13.24-.29,1.05.75,2.05-1,1-1.73Z" transform="translate(-54.06 -151.74)"/><path d="M214.08,257c.27-2.08-.86-4.11-1.68-5.95-.89-2-1.86-4-2.8-6a64.33,64.33,0,0,1-2.69-6.47,12.41,12.41,0,0,1-.8-2.86c-.11-1.36.89-1.81,2.08-2,2.33-.36,4.12.89,5.78,2.35s3.3,3,4.86,4.62,3.06,3.25,4.5,5c1.26,1.49,2.4,3.37,4.13,4.35s3.9.62,5.74-.18a16.35,16.35,0,0,0,5.77-3.8c.86-1-.55-2.38-1.41-1.42a14.45,14.45,0,0,1-5.53,3.55,4.28,4.28,0,0,1-3.34.23,7.12,7.12,0,0,1-2.36-2.21,96.81,96.81,0,0,0-9.57-10.27c-2.93-2.7-6.31-5.44-10.51-3.69s-1.22,7.31-.05,10.09c1,2.33,2.07,4.59,3.14,6.86.55,1.17,1.1,2.34,1.61,3.53.59,1.36,1.33,2.78,1.13,4.31-.16,1.27,1.84,1.26,2,0Z" transform="translate(-54.06 -151.74)"/><path d="M212.49,256.09a16.74,16.74,0,0,1-4.36,2.6c-1.34.64-3.09,1.29-4.1,2.43-1.21,1.39.05,2.58.31,4,.37,2-1.25,3.8-2.56,5.1a41.41,41.41,0,0,0-11,18,1,1,0,0,0,1.93.53,37.36,37.36,0,0,1,4.22-9.54,52.8,52.8,0,0,1,6.86-8.2,9.07,9.07,0,0,0,2.43-4,5.84,5.84,0,0,0,.11-2c-.1-.73-.78-1.69-.63-2.36s1.42-1.19,2.06-1.51,1.39-.67,2.09-1a16.07,16.07,0,0,0,4.07-2.59c1-.87-.47-2.28-1.42-1.41Z" transform="translate(-54.06 -151.74)"/><path d="M370.23,246.21a31.42,31.42,0,0,1,5.23,2c1.51.74,3.28,1.53,4.33,2.89a1,1,0,0,0,1.42,0,1,1,0,0,0,0-1.42c-1.16-1.48-3.09-2.39-4.74-3.2a35.53,35.53,0,0,0-5.71-2.18,1,1,0,0,0-.53,1.93Z" transform="translate(-54.06 -151.74)"/><path d="M381.47,251.16q4.75-5.13,9.88-9.94c1.64-1.53,3.29-3.08,5-4.5,1.52-1.24,4.2-3.58,6.32-3.1s2.33,3.33,1.83,5a31.18,31.18,0,0,1-2.95,6c-2.08,3.79-4.09,7.67-4.85,12a1,1,0,0,0,1,1.27c3.14.11,7.14,1.65,7.2,5.38,0,1.5-1,2.75-.88,4.29s1.21,2.61,2.13,3.68a137.16,137.16,0,0,1,12.78,17.7,1,1,0,0,0,1.86-.5,23.33,23.33,0,0,1,2.2-7.93c.55-1.15-1.17-2.17-1.73-1a26.53,26.53,0,0,0-2.47,8.94l1.87-.51A162.89,162.89,0,0,0,407,269.13a2.93,2.93,0,0,1-.95-2.5c.18-.83.61-1.56.75-2.41A6.41,6.41,0,0,0,406,260c-1.68-3-5.08-4.07-8.3-4.19l1,1.27c.71-4.07,2.58-7.71,4.54-11.29,1.63-3,4.17-6.49,3.5-10.09a5.29,5.29,0,0,0-2.3-3.55,5.15,5.15,0,0,0-4.92.09c-3.5,1.63-6.41,4.62-9.2,7.22q-5.31,4.94-10.23,10.26c-.87.94.54,2.36,1.42,1.41Z" transform="translate(-54.06 -151.74)"/><path d="M189.53,173.52c-4.57,5.64-5.92,13.12-7.39,20a203.42,203.42,0,0,0-3.65,23.92,142.4,142.4,0,0,0,3,46.61,111.26,111.26,0,0,0,8.86,24c.58,1.15,2.31.14,1.73-1-14-27.39-14.6-59.26-8.88-88.91.8-4.13,1.67-8.26,2.75-12.32,1-3.87,2.39-7.73,4.95-10.88.8-1-.61-2.41-1.42-1.41Z" transform="translate(-54.06 -151.74)"/><path d="M189.92,174.31a315.22,315.22,0,0,1,33.13,25.57c5.3,4.69,10.42,9.59,15.52,14.51A164.68,164.68,0,0,1,251.49,228a60.89,60.89,0,0,1,10.74,18.29c.42,1.2,2.36.68,1.93-.54-4.27-12.16-13-21.88-22.09-30.76a385.94,385.94,0,0,0-31.83-28.4q-9.39-7.38-19.31-14c-1.07-.72-2.08,1-1,1.73Z" transform="translate(-54.06 -151.74)"/><path d="M418.28,173.23a69.66,69.66,0,0,0-9,4.49c-2.83,1.69-5.43,3.68-8.13,5.56a90.55,90.55,0,0,0-8.16,6c-2.59,2.26-5.06,4.68-7.53,7.07a366,366,0,0,0-28.19,30.86,158.7,158.7,0,0,0-13.45,18.73,1,1,0,0,0,1.73,1c6.92-11.56,15.83-21.79,24.75-31.84q6.87-7.74,14.22-15c4.82-4.77,9.64-9.56,15.24-13.42,3-2.07,5.93-4.31,9-6.27a66.08,66.08,0,0,1,10-5.22c1.17-.49.66-2.42-.53-1.93Z" transform="translate(-54.06 -151.74)"/><path d="M418.33,174.44a146.12,146.12,0,0,1,9,83.6,143.82,143.82,0,0,1-6.38,23.13c-.45,1.21,1.49,1.73,1.93.53a148.39,148.39,0,0,0,4.85-85.24,145.56,145.56,0,0,0-7.63-23c-.5-1.18-2.22-.16-1.73,1Z" transform="translate(-54.06 -151.74)"/><path d="M271.94,223.14a154.26,154.26,0,0,0-27.73-33.58c-3-2.69-6-5.35-9.69-6.92v1.93q5.88-2,11.76-3.86c2.74-.89,5.47-1.76,8.23-2.58.89-.26,1.78-.53,2.69-.75l.69-.14.83-.13c5.91-1.06,11.72-2.68,17.64-3.72,4.39-.77,8.88-.63,13.32-.77,6.28-.19,12.56-.42,18.84-.52,3.84-.06,7.6.28,11.43.52l9.47.58,3.5.23,1.08.1c.2,0-.07,0,.29.05q7.41,1.41,14.82,2.89c8.46,1.69,16.65,4.49,24.93,6.92l1.09.32-.23-1.83a138.63,138.63,0,0,0-32.22,30.9c-2.57,3.41-5,6.95-7.2,10.59-.68,1.1,1,2.1,1.73,1a136.36,136.36,0,0,1,28.69-33.19c3.21-2.68,6.56-5.21,10-7.58a1,1,0,0,0-.23-1.83l-12.57-3.7c-3.3-1-6.58-2.12-10-2.83-5.48-1.14-11-2.18-16.47-3.24a90,90,0,0,0-11.84-1.09c-4.38-.26-8.81-.82-13.2-.84-5.79,0-11.58.22-17.36.4l-9.09.28c-1.79.05-3.61,0-5.4.14-6.15.49-12.27,2.26-18.28,3.58-1.74.39-3.34.62-4.84,1-2.2.53-4.37,1.25-6.53,1.93-5,1.58-10.09,3.24-15.11,4.92l-1,.34a1,1,0,0,0,0,1.93c4.21,1.77,7.62,5.24,10.89,8.33s6.32,6.24,9.27,9.55a152.7,152.7,0,0,1,16.06,21.7c.67,1.09,2.4.09,1.73-1Z" transform="translate(-54.06 -151.74)"/><path d="M271.28,225a159.86,159.86,0,0,1,50.47-2.19c4.81.56,9.58,1.35,14.31,2.34,1.26.27,1.8-1.66.54-1.92a161.77,161.77,0,0,0-51.47-2.46q-7.25.83-14.38,2.3c-1.26.26-.73,2.18.53,1.93Z" transform="translate(-54.06 -151.74)"/><path d="M264.17,247.09c2.06-1.74,4.74-2.44,7.29-3.15s5-1.3,7.45-1.82a117.25,117.25,0,0,1,15.83-2.19A118.69,118.69,0,0,1,326.38,242a116.16,116.16,0,0,1,17.36,5c1.21.44,1.73-1.49.53-1.93A120,120,0,0,0,279.49,240q-4.55.91-9,2.17c-2.77.79-5.5,1.66-7.74,3.54-1,.83.44,2.24,1.42,1.42Z" transform="translate(-54.06 -151.74)"/><path d="M180.69,216.12c.2-.2.41-.4.63-.58a5.93,5.93,0,0,1,.53-.38c.25-.16.5-.3.75-.43l.37-.17c-.1,0,0,0,.05,0l.24-.09a6.41,6.41,0,0,1,.78-.23l.39-.08.25,0h0a7.61,7.61,0,0,1,1.72,0,1,1,0,0,0,1-1,1,1,0,0,0-1-1,8.69,8.69,0,0,0-7.17,2.59,1,1,0,0,0,1.42,1.41Z" transform="translate(-54.06 -151.74)"/><path d="M187.7,213.2a37.65,37.65,0,0,1,7.67-19.34c.79-1-1-2-1.72-1a39.49,39.49,0,0,0-8,20.35c-.12,1.28,1.88,1.27,2,0Z" transform="translate(-54.06 -151.74)"/><path d="M194.16,194c4.31,3.22,8.62,6.45,12.68,10a92.17,92.17,0,0,1,11.07,11.54c6.39,7.86,12.73,15.85,17.73,24.69a74,74,0,0,1,6.76,15.74,1,1,0,0,0,1.93-.53c-2.89-9.94-8.12-19-14.14-27.32-3-4.19-6.22-8.24-9.46-12.26a103.22,103.22,0,0,0-11.11-12.07c-4.58-4.12-9.52-7.81-14.45-11.5-1-.77-2,1-1,1.73Z" transform="translate(-54.06 -151.74)"/><path d="M176.49,345.23c3.75-17,13.25-32.24,22.57-46.73a107.75,107.75,0,0,1,17.34-20.25c3.15-2.95,6.39-5.8,9.62-8.65s6.64-6,10.25-8.68c4.06-3,8.73-4.81,13.19-7.08q7.06-3.6,14.39-6.69c1.17-.49.65-2.43-.53-1.93-4.31,1.82-8.57,3.75-12.75,5.83-2.1,1-4.17,2.13-6.29,3.13s-4.16,1.91-6.13,3.08a71.52,71.52,0,0,0-10.52,8.24c-3.35,3-6.71,5.91-10,8.92-6.54,5.95-12.84,12.23-17.91,19.52a256.33,256.33,0,0,0-14.16,23.13c-4.77,8.71-8.84,17.88-11,27.63-.27,1.25,1.65,1.79,1.93.53Z" transform="translate(-54.06 -151.74)"/><path d="M429.92,213.8a12.36,12.36,0,0,0-6.61-.07l1.23.7c-1.09-8-2.43-16.36-7.87-22.66a1,1,0,0,0-1.22-.16,78.82,78.82,0,0,0-12.36,10.57c-2,2.14-3.87,4.44-5.82,6.66a66.26,66.26,0,0,1-5.95,5.9,86.75,86.75,0,0,0-11.12,11.39A85.49,85.49,0,0,0,371.94,239a118.55,118.55,0,0,0-6.9,16c-.43,1.21,1.5,1.73,1.93.53a100.31,100.31,0,0,1,13.79-26.83,74.25,74.25,0,0,1,10.42-11.14c2.08-1.84,4.18-3.66,6.08-5.69s3.7-4.3,5.59-6.42a75.49,75.49,0,0,1,13.61-12.07l-1.21-.16c5.17,6,6.33,14.21,7.36,21.78a1,1,0,0,0,1.23.7,10.36,10.36,0,0,1,5.55.06,1,1,0,0,0,.53-1.92Z" transform="translate(-54.06 -151.74)"/><path d="M365.73,256.19a92,92,0,0,1,17.87,13.07c5.52,5,10.79,10.35,15.88,15.81,10.26,11,19.6,23,26.28,36.6a97,97,0,0,1,8.15,23.52c.25,1.26,2.18.72,1.92-.54-3-14.71-9.7-28.42-18.28-40.66-8.79-12.56-19.42-23.89-30.59-34.35a98.74,98.74,0,0,0-20.22-15.17c-1.13-.61-2.14,1.11-1,1.72Z" transform="translate(-54.06 -151.74)"/><path d="M318.72,352.42c-1.48-1.72-4.1-2.18-6.23-2.52a34.23,34.23,0,0,0-6.86-.39c-4.59.2-9.65.74-13.87,2.64a2,2,0,0,0-.71,2.74,2,2,0,0,0,2.73.72,22.22,22.22,0,0,1,5.57-1.41,51.82,51.82,0,0,1,5.82-.66,31.44,31.44,0,0,1,5.9.16c1.44.19,3.82.38,4.82,1.55,1.68,2,4.5-.88,2.83-2.83Z" transform="translate(-54.06 -151.74)"/><path d="M154.67,352.45c-.65,5.47,2.36,10.94,4.8,15.65A89.57,89.57,0,0,0,167.61,381a85.21,85.21,0,0,0,22.07,20.6c9.71,6.2,20.55,10.49,31.42,14.21a273.86,273.86,0,0,0,35.48,9.75,248.12,248.12,0,0,0,37.35,4.49c12.34.55,24.84.9,37.16-.06a120.68,120.68,0,0,0,17.75-2.66c6.06-1.41,12.2-2.41,18.28-3.74a163.36,163.36,0,0,0,34.6-11.8c18.86-8.89,36-22.25,47.36-39.93,1.36-2.12,2.62-4.3,3.8-6.53.6-1.14-1.13-2.15-1.73-1-9.48,17.95-25,32-42.66,41.77a157,157,0,0,1-33.15,13.33c-5.82,1.65-11.69,2.86-17.63,4s-11.58,2.66-17.45,3.56c-12,1.83-24.19,1.65-36.3,1.41a277,277,0,0,1-36.73-2.94,247.78,247.78,0,0,1-35.56-8.25c-10.86-3.38-21.72-7.09-31.9-12.19a86.29,86.29,0,0,1-25-18.52,89,89,0,0,1-16.19-24.93c-1.25-2.9-2.27-5.91-1.89-9.12.15-1.27-1.85-1.26-2,0Z" transform="translate(-54.06 -151.74)"/><path d="M391.57,168.43c-13.94-7.16-29.5-9.7-44.81-12.17-16.8-2.71-33.58-4.83-50.65-4.48a218.9,218.9,0,0,0-49.84,6.83,215.9,215.9,0,0,0-23.57,7.51c-.82.32-1.66.61-2.46,1a11.72,11.72,0,0,1-1.67.82c-.9.23-1.13-.26-1.67-.94a20,20,0,0,0-1.82-2,49,49,0,0,0-8.67-6.49,64.7,64.7,0,0,0-9.45-5.18,25.9,25.9,0,0,0-11.13-1.2c-7.22.58-11.77,6.32-14.33,12.6A157.82,157.82,0,0,0,164.15,188c-.45,1.89-.86,3.78-1.23,5.69,0,0-.21,1.62-.08,1.28-.16.43.28-.17.1.06s-.32.17-.43.25c-1.45,1-3,1.82-4.53,2.76a130,130,0,0,0-15.88,11.71c-4.83,4.23-9.3,8.87-13.74,13.49-4.27,4.44-8.78,8.82-12.54,13.7q-7.3,9.48-14.49,19c-3.18,4.23-6.42,8.36-8.87,13.06-7.21,13.81-14.51,27.68-21,41.85-2.54,5.55-4,11.72-5.79,17.54-2.29,7.47-4.72,15-6.58,22.54-.47,1.95-.63,4-.92,6-.68,4.56-1.38,9.12-2.06,13.69-.59,3.88-1.19,7.77-1.7,11.67a71.15,71.15,0,0,0-.34,9.23c0,8.89.08,17.79.22,26.67.08,5.13.36,10.25.64,15.37.23,4,.36,8.13.87,12.14a215.2,215.2,0,0,0,5,26,62.88,62.88,0,0,0,2.81,7.79q2.52,6.36,5.05,12.71c.92,2.3,1.83,4.59,2.74,6.89a1,1,0,0,0,1.83.24L90,473.82l2.85-4.34c.38-.57-.1.06.24-.32.59-.67,1.2-1.32,1.8-2,4.28-4.68,8.49-9.6,13.25-13.79a41.43,41.43,0,0,1,6.66-4.27,81.17,81.17,0,0,1,13.6-6.58,99.79,99.79,0,0,1,17.17-3.92,77.11,77.11,0,0,1,17.1-.89c4.59.27,9.18.75,13.74,1.34a57.45,57.45,0,0,1,9.85,1.68,42.82,42.82,0,0,1,6.53,3.19q5,2.58,9.84,5.24c2,1.11,4.92,3.36,7.31,3.38,1.91,0,2.14-1.51,2.73-3l6.42-16.16.52-1.3c.47-1.2-1.46-1.72-1.93-.53l-5.48,13.78-1.5,3.78c-.13.34-.84,1.5-.74,1.87-.15-.53.95-.37-.26-.48a5.8,5.8,0,0,1-2.08-.89l-3.26-1.79q-4.84-2.64-9.73-5.2a73.11,73.11,0,0,0-7.25-3.62c-2.58-1-5.59-1.22-8.31-1.6q-6.72-1-13.48-1.5a80.92,80.92,0,0,0-15.09,0,139.14,139.14,0,0,0-19,3.56c-8.22,2-16,6.54-23,11.15a31.64,31.64,0,0,0-5.1,4.58c-2.49,2.53-4.92,5.13-7.33,7.73a55.58,55.58,0,0,0-6,7.13L72,497.6l-.48.73,1.83.24L65.55,479a63,63,0,0,1-2.77-7.66c-1.14-4.47-2-9-2.89-13.53-.78-4-1.59-8.11-2.11-12.21s-.64-8.33-.87-12.48c-.48-8.68-.63-17.34-.73-26-.06-5.07-.12-10.14-.11-15.21a75,75,0,0,1,.29-9.24c1-8.32,2.46-16.6,3.69-24.89.22-1.47.44-2.93.63-4.39a10,10,0,0,1,.29-1.66c.71-3,1.62-5.94,2.48-8.89,2.45-8.41,5-16.81,7.68-25.14a94.76,94.76,0,0,1,5.65-13.2q6-12.07,12.09-24.07c2.42-4.76,4.56-9.92,7.55-14.35,4.35-6.44,9.24-12.55,14-18.73q3.3-4.32,6.61-8.63c.51-.66,1-1.33,1.52-2,.25-.31,0,0,0,0,.25-.3.52-.58.78-.87,7.23-7.91,14.58-15.8,22.46-23.08a117.81,117.81,0,0,1,16.17-12.3c1.7-1.1,3.41-2.16,5.15-3.18a7.26,7.26,0,0,0,.9-.52c.86-.75.83-2.41,1-3.47A163.82,163.82,0,0,1,171.63,170c2.58-7.1,6.07-15.45,14.82-15.88,4.15-.2,8.27.18,12,2.14a106.25,106.25,0,0,1,9.7,5.76,40.86,40.86,0,0,1,7.85,7c1.92,2.17,4.16.22,6.3-.62A215.8,215.8,0,0,1,320.9,154.7c8.49.81,16.92,2.13,25.33,3.49,7.67,1.23,15.36,2.47,22.92,4.3a96.29,96.29,0,0,1,21.41,7.67c1.14.59,2.15-1.14,1-1.73Z" transform="translate(-54.06 -151.74)"/><path d="M318.94,353.35a50.41,50.41,0,0,1,7.4-33.73,45.07,45.07,0,0,1,28-19.57,42.78,42.78,0,0,1,17.09-.47A46.1,46.1,0,0,1,388,306.35a79.41,79.41,0,0,1,14.38,12.2c4.55,4.76,8.63,9.95,13.26,14.64a57.9,57.9,0,0,0,8.44,7.19c1.6,1.1,3.3,2,5,2.93s3.27,2.08,4.9,3.13c6.25,4,13.57,7.18,21.07,7.54l-1.5-1.5a31,31,0,0,1-2.7,11.19c-.79,1.75,1.8,3.27,2.59,1.51a34.86,34.86,0,0,0,3.11-12.7,1.53,1.53,0,0,0-1.5-1.5c-7-.34-13.76-3.4-19.56-7.13-1.38-.89-2.72-1.84-4.13-2.68s-3.14-1.68-4.64-2.64a50.41,50.41,0,0,1-8.32-6.83c-4.84-4.8-9-10.19-13.75-15.12a84.43,84.43,0,0,0-14.44-12.38A49.27,49.27,0,0,0,373,296.83a46.48,46.48,0,0,0-17.94,0,48.07,48.07,0,0,0-29.56,18.71,53.35,53.35,0,0,0-9.46,38.6c.27,1.9,3.16,1.09,2.9-.8Z" transform="translate(-54.06 -151.74)"/><path d="M391.87,170c4.73-3.7,9.6-7.25,14.64-10.52,4.68-3,10-5.94,15.76-5.66,11.34.57,16.8,12.62,18.93,22.15,1.5,6.74,2.36,13.63,3.29,20.47.17,1.27,2.1.73,1.93-.53-.89-6.55-1.73-13.13-3.1-19.6-1.21-5.7-3-11.47-6.63-16.16-3-3.95-7.3-7.22-12.3-8.08-5.83-1-11.48,1.24-16.42,4.15a165.56,165.56,0,0,0-17.52,12.36c-1,.79.41,2.2,1.42,1.42Z" transform="translate(-54.06 -151.74)"/><path d="M155.18,353.85c11.77-1.54,22.37-7.05,31.58-14.36,10.15-8,17.86-18.49,27.27-27.29,4.67-4.37,9.57-8.12,15.72-10.1a56.57,56.57,0,0,1,19.76-2.69,48.89,48.89,0,0,1,19.4,4.59,40.14,40.14,0,0,1,12.93,10.13c8.94,10.48,12,24.9,9.68,38.32-.32,1.88,2.57,2.7,2.9.79,2.14-12.55.11-25.89-7-36.62a43.34,43.34,0,0,0-29.12-19.18,59.33,59.33,0,0,0-20.46-.34c-6.25,1-12.77,2.79-18,6.44-11.3,7.85-19.29,19.39-29.26,28.7-9.81,9.17-21.85,16.83-35.4,18.61a1.57,1.57,0,0,0-1.5,1.5c0,.73.7,1.61,1.5,1.5Z" transform="translate(-54.06 -151.74)"/><path d="M433,299.48c3.51,4.58,5.44,10.08,7.55,15.39,2.23,5.59,4.68,11.17,6.05,17.05.29,1.26,2.22.73,1.93-.53-1.4-6-3.94-11.76-6.23-17.5-2.11-5.31-4.06-10.83-7.58-15.42-.77-1-2.51,0-1.72,1Z" transform="translate(-54.06 -151.74)"/><path d="M446.65,332.7a65.87,65.87,0,0,1,14.7,3.83c4,1.68,7.87,4.3,9.74,8.4,2,4.41,1.6,9.47.34,14a66.93,66.93,0,0,1-6.11,14.15,122.58,122.58,0,0,1-7.65,12.43,118.13,118.13,0,0,1-9.82,11.84,70.76,70.76,0,0,1-11.39,10.42c-4.43,3-9.11,5.75-13.68,8.59-2.57,1.6-5.14,3.21-7.73,4.79-1.22.73-2.43,1.48-3.68,2.15a29.52,29.52,0,0,1-3.87,1.45c-2.65,1-5.05,2.52-7.68,3.57s-5.48,2-8.22,3c-1.21.43-.69,2.36.53,1.92,2.6-.93,5.21-1.84,7.78-2.85s4.74-2.22,7.13-3.33a35.13,35.13,0,0,1,3.49-1.22,20.43,20.43,0,0,0,3.33-1.69c2.44-1.42,4.83-2.93,7.23-4.42,4.88-3,9.8-6,14.62-9.1a68.48,68.48,0,0,0,12.18-10.43,131.43,131.43,0,0,0,10.19-11.91,118.17,118.17,0,0,0,8.53-13.44c4.64-8.33,10-18.88,7.1-28.65-3.26-11-16.68-13.9-26.53-15.47-1.26-.2-1.8,1.72-.53,1.92Z" transform="translate(-54.06 -151.74)"/><path d="M163.41,331.27c-.48-2.86.71-5.87,1.6-8.54a86,86,0,0,1,3.17-8.07c1.13-2.51,2.37-5,3.7-7.38a36.16,36.16,0,0,1,4.44-6.89c.85-1-.56-2.38-1.41-1.41a37,37,0,0,0-4.65,7.09c-1.51,2.75-2.92,5.55-4.18,8.42a88.92,88.92,0,0,0-3.21,8.36c-.94,2.9-1.91,5.87-1.38,8.95.21,1.26,2.14.73,1.92-.53Z" transform="translate(-54.06 -151.74)"/><path d="M162.33,330.7a33.08,33.08,0,0,0-10.86,2.48,44.08,44.08,0,0,0-8.9,4.52,16.75,16.75,0,0,0-5.78,6.33,15.73,15.73,0,0,0-.78,10.2,74.35,74.35,0,0,0,3.72,10.92c1.32,3.4,2.69,6.77,4.17,10.1a100.91,100.91,0,0,0,10.7,18.94A61,61,0,0,0,171,409.78c1.1.68,2.1-1,1-1.73-11.09-7-18.76-18-24.4-29.61a199.7,199.7,0,0,1-8-19.44c-1.2-3.31-2.32-6.84-2-10.39a12,12,0,0,1,4.43-8,33,33,0,0,1,8.56-4.94,33.05,33.05,0,0,1,11.78-3c1.28-.05,1.29-2.05,0-2Z" transform="translate(-54.06 -151.74)"/><path d="M392.79,430.94c-28,9.71-57.78,13.33-87.35,12.91a364.25,364.25,0,0,1-44.62-3.45,222.13,222.13,0,0,1-44-10.25,190.15,190.15,0,0,1-22.49-9.71A242.36,242.36,0,0,1,171.93,408c-1.08-.7-2.08,1-1,1.73a231.9,231.9,0,0,0,20.3,11.38,210.53,210.53,0,0,0,19.94,9.08A209.56,209.56,0,0,0,255,441.55c29.59,4.63,60,5.91,89.82,2.31a234.09,234.09,0,0,0,48.47-11c1.21-.42.69-2.35-.53-1.93Z" transform="translate(-54.06 -151.74)"/><path d="M86.57,478.06A47.45,47.45,0,0,1,80,460.68c-1.12-6.06-2-12.18-2.82-18.28s-1.67-12.32-2.3-18.5a76.39,76.39,0,0,1-.2-8.56c.06-6,.07-12,.16-18a150.13,150.13,0,0,1,.6-15.88c.61-5,1.75-10.34,2.64-15.42.83-4.68,1.52-9.41,2.5-14.06.51-2.43,1.36-4.83,2-7.22l4.58-16c1-3.68,2.18-7.34,3.16-11,.08-.31.16-.45,0-.18.12-.25.26-.49.4-.74l2-3.73L107.66,285c1.54-2.88,3.19-5.73,4.61-8.66.08-.17.32-.59,0-.18.17-.25.38-.49.57-.73l3.12-4c6.88-8.77,13.71-17.61,20.87-26.15,3.33-4,7.11-7.54,10.78-11.17l6-5.89c.25-.24.51-.48.75-.73.06-.05.42-.37.19-.2s.4-.21.51-.27l1.51-.86,5.32-3-1.51-.86a116.56,116.56,0,0,0-1,15.62A116.28,116.28,0,0,0,161.35,253c.8,5,1.5,10.06,2.53,15a101.25,101.25,0,0,0,4.54,14.84l6.15,16.66c.45,1.19,2.38.68,1.93-.53l-5.37-14.55a124.92,124.92,0,0,1-4.8-14.58c-1.17-4.92-1.86-10-2.66-15s-1.82-10.15-2.13-15.28a106.11,106.11,0,0,1,.89-17.36c.09-.79-.9-1.21-1.5-.87l-5.61,3.2a13.19,13.19,0,0,0-3,2.15c-4.46,4.34-8.91,8.69-13.24,13.16-2.94,3-5.56,6.31-8.2,9.58q-5.79,7.19-11.49,14.45-4,5.08-8,10.2a28.37,28.37,0,0,0-2.52,4.34L94,306.36,89,315.92a28.28,28.28,0,0,0-1.74,5.44L79,349.92a71.28,71.28,0,0,0-1.4,7.13q-1.65,9.26-3.26,18.52A93.53,93.53,0,0,0,73,388.39c-.21,6.46-.25,12.93-.29,19.4,0,4-.1,7.94-.17,11.91a40.67,40.67,0,0,0,.38,4.8c.3,2.94.66,5.87,1,8.8q1.29,10.24,2.85,20.44c1.07,6.88,2.27,13.61,5.19,20a38.22,38.22,0,0,0,2.84,5.32c.7,1.07,2.44.07,1.72-1Z" transform="translate(-54.06 -151.74)"/><path d="M391,432.83q2.38,4.89,4.69,9.79c1,2.18,2,4.37,3,6.58.41.95.74,2.95,1.79,3.38,1.58.64,3.84-1,5.1-1.78,1.71-1.05,3.29-2.28,4.94-3.42a12.34,12.34,0,0,1,2.08-1q3.18-1.35,6.39-2.61c2.71-1.06,5.45-2.08,8.22-3a35.78,35.78,0,0,1,7-1.76c1.51-.16,3-.21,4.53-.42,1.79-.26,3.57-.61,5.35-.91a43.54,43.54,0,0,1,11.95-.53,119.2,119.2,0,0,1,20.13,4.11,51,51,0,0,1,8,2.76c2.72,1.3,5.37,2.8,8,4.29a100.23,100.23,0,0,1,9.73,6.15,52.25,52.25,0,0,1,8.2,7.67c2.69,3,5.33,6,7.87,9.15.93,1.16,1.86,2.33,2.71,3.55a23.18,23.18,0,0,0,2.26,3.27A5.52,5.52,0,0,0,525,479.6a1,1,0,0,0,1.23-.7c2.07-8.65,4.13-17.3,6.12-26a88.09,88.09,0,0,0,2-10.15c.53-5,.78-10,1.08-15.07.35-6,.67-12.05,1-18.08.19-3.43.59-6.9.54-10.33-.08-5.38-.57-10.77-1-16.12-.49-5.53-1-11.05-1.74-16.55-.39-3-1.1-5.84-1.78-8.76-1.33-5.73-2.66-11.46-4.08-17.16a120.6,120.6,0,0,0-4.18-14.81c-1.73-4.45-4.05-8.73-6.11-13-4.62-9.64-9.09-19.39-14.67-28.52-3.31-5.43-6.72-10.8-10.18-16.13a91.05,91.05,0,0,0-6.53-9.4c-6.42-7.59-13.2-14.89-19.86-22.27-4.69-5.18-10.3-9.5-15.55-14.08l-2.51-2.19a1,1,0,0,0-1.67,1c1.37,4.95,1,10.42.87,15.51s-.56,10.32-1.18,15.45a197.3,197.3,0,0,1-6.41,30.82c-1.59,5.51-3.18,11.06-7.43,15.15-.93.89.48,2.31,1.41,1.41,3.71-3.56,5.57-8.14,7-13q2.42-7.89,4.21-15.95A182.76,182.76,0,0,0,450,238.75c.13-3.12.18-6.23.13-9.35a34.53,34.53,0,0,0-1-8.66l-1.68,1,8.31,7.25c2.51,2.19,5.2,4.27,7.57,6.61s4.52,5,6.76,7.49c3.75,4.17,7.51,8.34,11.23,12.55a80.55,80.55,0,0,1,6.21,7.52c3.23,4.71,6.3,9.55,9.35,14.39,2.86,4.52,5.76,9,8.36,13.71,2.44,4.4,4.58,9,6.78,13.51q4.14,8.5,8.18,17c.76,1.6,1.61,3.23,2.23,4.86.76,2,1.34,4.11,1.91,6.19,2.78,10,4.9,20.14,7.37,30.21a83.65,83.65,0,0,1,1.52,11.49c.63,6,1.17,12.07,1.55,18.11a83.31,83.31,0,0,1,.13,10.83c-.33,5-.57,10-.84,15-.33,6-.65,12-1.08,18a69.74,69.74,0,0,1-1.14,10c-2.13,9.87-4.54,19.67-6.88,29.49-.19.82-.39,1.64-.59,2.47l1.23-.7c-1.63-.51-3-3.48-4.13-5-2.16-2.88-4.51-5.62-6.87-8.34a87.48,87.48,0,0,0-7.87-8.46,67,67,0,0,0-9.11-6.56c-5-3.12-10.34-6.35-15.94-8.33A119.83,119.83,0,0,0,461.89,436a57.94,57.94,0,0,0-10.08-1,65.52,65.52,0,0,0-11.16,1.33c-2.8.49-5.66.5-8.44,1.06a60,60,0,0,0-7.63,2.23c-4.62,1.6-9.17,3.44-13.67,5.37-2.59,1.12-4.7,3.19-7.15,4.6a14.59,14.59,0,0,1-1.35.72,6.77,6.77,0,0,0-1.18.42,1.45,1.45,0,0,0,.27.28c.06-.1-.19-.59-.22-.68-.68-1.86-1.54-3.65-2.36-5.45-1.88-4.1-3.83-8.16-5.8-12.22-.13-.27-.26-.54-.4-.81-.56-1.15-2.29-.14-1.72,1Z" transform="translate(-54.06 -151.74)"/><path class="cls-4" d="M525.3,478.63,536,498.83s2.33-2.61,5.65-12.59,9.27-34.22,10-38,4-38.26,3.57-43.49-2.38-42.23-5.23-51.89-13.44-43.63-14-45.06-23.57-45.42-25.48-47.3-20.19-26.4-26.13-32.79-31.13-27.08-31.13-27.08l-8.08-6.21" transform="translate(-54.06 -151.74)"/><path d="M236.3,436.23a142.61,142.61,0,0,0-21.8,73.48c-.11,7.53,0,15.51,2,22.8a1,1,0,0,0,1.93-.53c-1.82-6.45-2-13.44-2-20.1a137.88,137.88,0,0,1,1.31-19.16A139.62,139.62,0,0,1,238,437.24c.69-1.09-1-2.1-1.73-1Z" transform="translate(-54.06 -151.74)"/><path d="M218.62,532.91c1.39-6.64,9-9.63,14.3-12.6l19.41-10.89a1,1,0,0,0-1-1.73l-20.71,11.62c-5.48,3.08-12.49,6.26-13.92,13.07-.26,1.25,1.66,1.79,1.93.53Z" transform="translate(-54.06 -151.74)"/><path d="M247.56,438.83c-3.09,3.37-4.77,7.64-5.89,12a93.9,93.9,0,0,0-2.6,15.54c-.84,10.06.25,20.32,4.36,29.61a43.32,43.32,0,0,0,8.8,13,1,1,0,0,0,1.41-1.41c-14-14.13-14.65-35.51-10.6-53.84,1.06-4.83,2.52-9.77,5.93-13.49.87-.95-.54-2.36-1.41-1.41Z" transform="translate(-54.06 -151.74)"/><path d="M340.07,509.36a55.55,55.55,0,0,0-12.22-5.18,86.68,86.68,0,0,0-13.12-3,106.91,106.91,0,0,0-27.8-.46,141.06,141.06,0,0,0-14,2.25l-3.26.71a3.14,3.14,0,0,1-2.48-.08,14.83,14.83,0,0,1-4.46-4.76,51.31,51.31,0,0,1-5.6-11.92c-1.56-4.46-3.22-9-3.74-13.7a79.79,79.79,0,0,1,3.21-31.42,1,1,0,0,0-1.93-.53,84.24,84.24,0,0,0-3.56,28.44,52.61,52.61,0,0,0,2.81,14,85,85,0,0,0,5,12.58,34.8,34.8,0,0,0,3.42,5.39,13,13,0,0,0,4.38,3.94c1.71.77,3.67,0,5.38-.4,2.4-.52,4.82-1,7.24-1.41a114.07,114.07,0,0,1,29.52-1.33,88.93,88.93,0,0,1,15.45,2.79c5.05,1.4,10.33,3.13,14.81,5.89,1.1.67,2.11-1.06,1-1.73Z" transform="translate(-54.06 -151.74)"/><path d="M355.1,442.44c1.54,1.6,1.81,4.35,2.22,6.44a61.77,61.77,0,0,1,1,7.42,64,64,0,0,1-.63,14.76c-1.5,9.35-5.26,18.45-9.7,26.78a39.28,39.28,0,0,1-9,11.75c-1,.83.44,2.24,1.42,1.41,7.3-6.19,11.22-15.38,14.77-24a67.73,67.73,0,0,0,5.2-30.21,66,66,0,0,0-1.09-8.41c-.49-2.51-.9-5.41-2.73-7.33-.89-.93-2.31.49-1.42,1.42Z" transform="translate(-54.06 -151.74)"/><path d="M370.43,530.46c-4.25-6.16-10.8-10-17.18-13.54a1,1,0,0,0-1,1.72c6.06,3.4,12.43,7,16.47,12.83.72,1,2.46,0,1.72-1Z" transform="translate(-54.06 -151.74)"/><path d="M362.43,441.79c7,8.71,7.28,20.45,6.68,31.09s-1.24,21.71-6.54,31.1a36.64,36.64,0,0,1-11.17,12.16c-1,.72,0,2.46,1,1.72,9-6.16,14.44-15.47,16.64-26a121.08,121.08,0,0,0,1.95-17,83.53,83.53,0,0,0-.35-18.23,34.09,34.09,0,0,0-6.81-16.23c-.8-1-2.21.42-1.41,1.41Z" transform="translate(-54.06 -151.74)"/><path d="M370.49,531.73a25.93,25.93,0,0,1,26.13-17c1.28.09,1.28-1.92,0-2a27.94,27.94,0,0,0-28.05,18.46c-.44,1.21,1.49,1.73,1.92.53Z" transform="translate(-54.06 -151.74)"/><path d="M374,438.36c3.72,2.89,5.89,7.08,7.94,11.21a135.94,135.94,0,0,1,6.22,14.29,77.07,77.07,0,0,1,3.79,14.7c.81,5.36,1.25,10.78,1.82,16.16l2,18.73c.13,1.26,2.13,1.28,2,0-1.19-11.24-2.13-22.54-3.63-33.74-1.4-10.47-5.15-20.26-9.75-29.71-2.3-4.74-4.69-9.74-9-13.05-1-.78-2.43.63-1.41,1.41Z" transform="translate(-54.06 -151.74)"/><path d="M197.5,515a56.62,56.62,0,0,1,.31-23.79c.87-3.78,2.07-7.48,3.28-11.16a57.71,57.71,0,0,1,4.36-10.83,1,1,0,0,0-1.73-1,59.05,59.05,0,0,0-4.41,10.85c-1.31,4-2.62,8-3.53,12.09a58.91,58.91,0,0,0-.21,24.38c.25,1.26,2.18.73,1.93-.53Z" transform="translate(-54.06 -151.74)"/><path d="M87.25,514c14.34.73,28.7.66,43.05.33,14.1-.32,28.25-1.24,42.35-.81A114.94,114.94,0,0,1,196,516.36c1.25.3,1.79-1.62.53-1.93-13.63-3.29-27.72-3.26-41.65-2.86-14.39.41-28.78.95-43.17.95-8.17,0-16.34-.16-24.49-.57-1.29-.06-1.29,1.94,0,2Z" transform="translate(-54.06 -151.74)"/><path d="M204.82,467.43c-16.79-9.64-36-16.64-55.67-14.18A55,55,0,0,0,123.2,463.3,112.15,112.15,0,0,0,112.11,473a124.3,124.3,0,0,0-10.47,11.3,98.17,98.17,0,0,0-15.8,28.11c-.44,1.21,1.49,1.73,1.92.53A96.07,96.07,0,0,1,101,488.42a124.73,124.73,0,0,1,20.46-21.19,53.24,53.24,0,0,1,24.87-11.54,68.35,68.35,0,0,1,27.61,1.07c10.57,2.49,20.53,7,29.92,12.4a1,1,0,0,0,1-1.73Z" transform="translate(-54.06 -151.74)"/><path d="M122.57,513.09c.12-2.51,2.74-4.48,4.53-6a33.84,33.84,0,0,1,21.36-7.54,1,1,0,0,0,.71-1.71l-8.43-8.84c-2.45-2.57-5.31-5.13-6.59-8.54l-.46,1.13a39.4,39.4,0,0,1,9.69-5,40.76,40.76,0,0,1,5-1.37c.9-.19,1.8-.34,2.71-.46a24.14,24.14,0,0,0,2.56-.28,1.48,1.48,0,0,0,.7-2.65,30.9,30.9,0,0,0-4-3.16,53,53,0,0,0-9.59-5.41l-.24,1.82c4.39-1.25,8.89-2.55,13.5-2.22a14.14,14.14,0,0,1,10.84,6c2.42,3.33,4.75,7.06,5.69,11.11a8.51,8.51,0,0,1,.38,3c-.17,1.09-1.78,1.13-2.66,1.22a27.45,27.45,0,0,1-6.65-.38c-2.4-.37-4.79-.84-7.22-1-1.64-.11-4.37-.49-5.28,1.32a1,1,0,0,0,.36,1.36c3.68,2.78,19.14,16.92,8.48,19.75-1.93.51-4,.6-5.92.94-2.31.39-4.6.92-6.86,1.53-4.62,1.25-9.13,2.86-13.63,4.47-1.2.43-.68,2.36.53,1.93,7.92-2.83,15.75-5.36,24.11-6.52,3.07-.42,6.32-1.48,7.18-4.84.95-3.69-1.4-7-3.53-9.8a49.27,49.27,0,0,0-9.35-9.18l.36,1.37c.37-.74,2.44-.39,3.1-.35a38,38,0,0,1,4,.46c2.39.37,4.78.84,7.2,1,2,.12,4.5.22,6.29-.77s1.56-3,1.28-4.76c-.72-4.57-3.25-8.75-5.88-12.47a16.09,16.09,0,0,0-10.72-7.09c-5.48-.92-10.89.55-16.13,2-.75.22-1.07,1.47-.24,1.83a53.53,53.53,0,0,1,7,3.7c1.06.67,2.09,1.37,3.1,2.11.58.43,1.16.87,1.72,1.32.35.28,1.31.83,1.43,1.28l.1-.77c0,.08-2.47.19-2.72.23-.85.12-1.7.27-2.54.44a40.32,40.32,0,0,0-5.39,1.52,41.47,41.47,0,0,0-9.76,5.05,1,1,0,0,0-.46,1.13c1.31,3.48,3.92,6.08,6.43,8.72l9.11,9.55.7-1.71a36.25,36.25,0,0,0-16.61,4,35.66,35.66,0,0,0-6.95,4.73c-2,1.78-4.19,3.84-4.33,6.71-.07,1.29,1.94,1.29,2,0Z" transform="translate(-54.06 -151.74)"/><path d="M202.23,476.06c-2.17-2.68-5.87-3.85-8.91-5.21-3.57-1.6-7.16-3.15-10.82-4.52a66.14,66.14,0,0,0-22.81-4.67c-2.58,0-2.58,4,0,4,7.33,0,14.46,1.84,21.3,4.36,3.42,1.26,6.77,2.7,10.09,4.18,2.76,1.24,6.36,2.26,8.32,4.69a2,2,0,0,0,2.83,0,2.05,2.05,0,0,0,0-2.83Z" transform="translate(-54.06 -151.74)"/><path d="M67.76,523.82a45.2,45.2,0,0,1,5.8-25.18,1,1,0,0,0-1.73-1,47.11,47.11,0,0,0-6.07,26.19c.08,1.28,2.08,1.29,2,0Z" transform="translate(-54.06 -151.74)"/><path d="M405.07,469.64c9.15,12.6,8.55,28.79,7.86,43.6-.06,1.29,1.94,1.28,2,0,.71-15.14,1.22-31.73-8.13-44.61-.75-1-2.49,0-1.73,1Z" transform="translate(-54.06 -151.74)"/><path d="M413.92,514.43a111.68,111.68,0,0,1,15.08-.5c4.56.16,9.26.6,13.47,2.49,7.52,3.37,12.44,10.47,16.89,17.1.71,1.06,2.45.06,1.73-1-3.65-5.44-7.49-10.94-12.77-14.92-5.93-4.47-13.06-5.51-20.29-5.69a110.81,110.81,0,0,0-14.11.53c-1.27.12-1.28,2.12,0,2Z" transform="translate(-54.06 -151.74)"/><path d="M461.25,533.73c3.95-7.4,10.95-12.37,18.06-16.47a1,1,0,0,0-1-1.72c-7.4,4.25-14.67,9.49-18.78,17.18-.61,1.14,1.12,2.15,1.73,1Z" transform="translate(-54.06 -151.74)"/><path d="M480,516.09c-.62-2.91-3.2-4.53-5.8-5.53a68.19,68.19,0,0,0-11.19-2.83c-4.07-.8-8.19-1.41-12.32-1.82a9.86,9.86,0,0,1-2.93-.37c-1-.48-.88-1.69-.5-2.56a24.36,24.36,0,0,1,3.48-4.92c1.23-1.55,2.52-3.06,3.87-4.51s2.85-2.63,4-4.1c2.83-3.45-4.41-4.11-6.13-4.34-2-.27-4-.44-6-.51s-3.91.18-5.84.06c-.77-.05-1.91-.31-1.44-1.31a4.52,4.52,0,0,1,2.12-1.73c1.57-.84,3.14-1.67,4.68-2.54,6.95-3.91,13.6-8.51,18.34-15,.75-1-1-2-1.73-1-4.4,6-10.65,10.36-17.08,14-1.6.91-3.23,1.79-4.86,2.65-1.31.7-2.77,1.55-3.37,3a2.68,2.68,0,0,0,1,3.34c1.34.86,3.06.62,4.56.57a55.57,55.57,0,0,1,13.19,1.11c.46.1,1.06.07.86.69-.1.3-.76.73-1,1-.77.75-1.51,1.51-2.25,2.29q-2.11,2.24-4.05,4.65a55.15,55.15,0,0,0-3.5,4.67,5.21,5.21,0,0,0-.93,4.43,3.46,3.46,0,0,0,3.24,2.31c2,.22,4.05.38,6.07.64a125.64,125.64,0,0,1,14.52,2.79c3.16.8,8.25,1.68,9.06,5.5.27,1.25,2.2.72,1.93-.54Z" transform="translate(-54.06 -151.74)"/><path d="M464.4,462c-19-2.87-37.94,2.51-54.81,11.07-2.29,1.17-.27,4.62,2,3.45,15.81-8,33.89-13.36,51.72-10.66a2.06,2.06,0,0,0,2.46-1.4A2,2,0,0,0,464.4,462Z" transform="translate(-54.06 -151.74)"/><path d="M406.7,469.43c16.64-9.23,36.06-14.12,55.09-11.76A66.42,66.42,0,0,1,476.07,461a47.94,47.94,0,0,1,13.29,7.8,109.87,109.87,0,0,1,18.73,18.41,67.75,67.75,0,0,1,13,26.11c.3,1.25,2.23.72,1.93-.53C518.83,495,506.67,480.32,492.79,469c-3.91-3.19-8-6.33-12.55-8.44a59.05,59.05,0,0,0-14.36-4.27,83.72,83.72,0,0,0-28.94.18,101,101,0,0,0-31.25,11.25,1,1,0,0,0,1,1.73Z" transform="translate(-54.06 -151.74)"/><path d="M522.09,512.64q-18,.3-36-1l1,1c0-5.1-5.07-8.64-9-10.9a34.14,34.14,0,0,0-15-4.39l1,1.27c1.76-5.82,7.52-9.07,11.37-13.39.81-.92,1.92-2.06,1.43-3.39s-2-1.71-3.16-2.14a62.25,62.25,0,0,0-11-2.76l.44,1.67a44.71,44.71,0,0,1,8.49-5.89,41.91,41.91,0,0,1,4.77-2.19c1.21-.46,2.65-.84,2.86-2.33.4-2.75-3.46-4.52-5.58-5.1a24.64,24.64,0,0,0-9.1-.31c-1.27.14-1.28,2.14,0,2a25.81,25.81,0,0,1,7.65,0,9.89,9.89,0,0,1,3.4,1.29c.44.28,1.38.83,1.52,1.38.23.86-1.08,1-1.67,1.27a47,47,0,0,0-13.75,8.44,1,1,0,0,0,.44,1.68,73.62,73.62,0,0,1,9.53,2.22,22.63,22.63,0,0,1,2.53.95c.86.4.61.86.05,1.5a36,36,0,0,1-2.8,2.86c-3.67,3.43-7.8,6.68-9.32,11.68a1,1,0,0,0,1,1.27,32.08,32.08,0,0,1,13.23,3.71c3.49,1.88,8.79,5.06,8.78,9.58a1,1,0,0,0,1,1q18,1.32,36,1a1,1,0,0,0,0-2Z" transform="translate(-54.06 -151.74)"/><path d="M66.43,522.58a30,30,0,0,0-6.31,11.66,1,1,0,0,0,1.93.53A27.47,27.47,0,0,1,67.85,524c.84-1-.57-2.39-1.42-1.42Z" transform="translate(-54.06 -151.74)"/><path d="M60.07,534.42l-.41,89.18L59.54,649a1,1,0,0,0,2,0L62,559.83l.11-25.41a1,1,0,0,0-2,0Z" transform="translate(-54.06 -151.74)"/><path d="M59.67,649.8c2.58,7,5.55,14.61,12.12,18.79,3.51,2.24,7.65,3.13,11.74,3.55,4.61.47,9.28.5,13.92.68,15.88.61,35.49,2.65,46.53-11.43a29.52,29.52,0,0,0,6-23.11c-.21-1.27-2.14-.73-1.92.53a27.44,27.44,0,0,1-4.43,19.75c-4.28,6.35-11,10.06-18.35,11.6-7.91,1.65-16.12,1.11-24.13.8-4.46-.17-8.91-.32-13.37-.53a37.85,37.85,0,0,1-11.67-1.92c-8.21-3.1-11.65-11.62-14.48-19.24-.44-1.2-2.37-.68-1.92.53Z" transform="translate(-54.06 -151.74)"/><path d="M149.25,638.85c16.93,1.38,36.52,2.42,49.67-10.44.92-.9-.5-2.31-1.42-1.41-12.72,12.44-31.91,11.18-48.25,9.85-1.28-.11-1.27,1.89,0,2Z" transform="translate(-54.06 -151.74)"/><path d="M366.37,652.68c-3.69,5.29-9.44,8.57-15.07,11.44A132.64,132.64,0,0,1,333,671.74a128.06,128.06,0,0,1-39.34,6.61,112.06,112.06,0,0,1-68.21-22.16,100.75,100.75,0,0,1-26.18-29.07,1,1,0,0,0-1.73,1c12.26,20.71,32,36.38,54.39,44.89,24.82,9.44,52.55,9.41,77.85,1.83a134.9,134.9,0,0,0,21.33-8.42c6.37-3.16,12.8-6.79,17-12.74.74-1.06-1-2.06-1.73-1Z" transform="translate(-54.06 -151.74)"/><path d="M289.69,557.06c-13.24,1.83-24.64,11.72-27.26,25a31.51,31.51,0,0,0,3,20.31c3.07,6.31,6.75,12.64,13.34,15.75,6.12,2.89,13.47,3.34,20.12,2.6a22.38,22.38,0,0,0,9.84-3.32,29.28,29.28,0,0,0,7.2-6.8c4.36-5.6,7.81-12,8.15-19.2s-.72-14.75-4.87-20.93c-7.59-11.31-22.25-16.1-35.2-12.19a32.93,32.93,0,0,0-4.71,1.86c-1.16.57-.14,2.29,1,1.73,11.5-5.58,26-3,34.68,6.44a28,28,0,0,1,7.06,17.8,32.57,32.57,0,0,1-.83,10.87,36.07,36.07,0,0,1-4.48,9c-3.26,5.07-7.61,10-13.52,11.82A33,33,0,0,1,292.76,619a36.94,36.94,0,0,1-9.18-1.2,21,21,0,0,1-8.16-4.17,28.44,28.44,0,0,1-6-7.88c-3.36-6-6-12.19-5.59-19.21.78-14.39,12.37-25.58,26.36-27.51,1.27-.17.73-2.1-.53-1.93Z" transform="translate(-54.06 -151.74)"/><ellipse class="cls-4" cx="239.67" cy="438.19" rx="84.95" ry="72.15"/><path class="cls-4" d="M392.94,532.24l38.5-.78,27.14,28.2h2.8l26.37-27.42h36.83s3.57,1,4.52,2.71a12.6,12.6,0,0,1,1.66,5.7c0,1.79-3.44,7-5,8.44s-43,43.84-43,43.84l43.25,48s2,2,2.14,3.8-.71,4.76-1.55,5.59-4.51,4.16-4.51,4.16H487.63l-28.51-30.54s-.83-.37-2.79,1.9-27.54,28.64-27.54,28.64H394.93s-4.81-1.37-5.79-3.42-2.32-5.17-2.14-6.59,10.16-12.66,10.16-12.66l37.16-37.87a1.29,1.29,0,0,0,.35-1.43c-.35-.8-38.22-40.36-38.22-40.36s-9.39-9.54-9.47-10.78S391.48,532.27,392.94,532.24Z" transform="translate(-54.06 -151.74)"/><path d="M366.46,653.84a57.61,57.61,0,0,0,13.61,14.59,23.47,23.47,0,0,0,8.91,4.18,51.5,51.5,0,0,0,11,.69c7.66,0,15.31-.31,23-.49,3.57-.09,7.37.14,10.87-.72,3.11-.77,6-2.58,8.63-4.3a68.35,68.35,0,0,0,16.48-15c.79-1-.61-2.43-1.41-1.42a66.63,66.63,0,0,1-13.62,13,49.89,49.89,0,0,1-8,4.85c-3.23,1.49-6.72,1.42-10.21,1.5-7.25.17-14.51.38-21.77.51-6.86.14-14.17.67-20.31-2.92s-11.4-9.56-15.36-15.5c-.71-1.06-2.45-.06-1.73,1Z" transform="translate(-54.06 -151.74)"/><path d="M457.63,652.5a78.38,78.38,0,0,1,11.67,11c3.1,3.5,6.46,7,11.15,8.15a40.19,40.19,0,0,0,7.89.84c3,.13,5.91.2,8.87.22,5.91,0,11.82-.13,17.73-.36,2.86-.11,5.72-.22,8.58-.35a33,33,0,0,0,7.92-1,22.21,22.21,0,0,0,10.45-7c5.81-6.74,9.72-17.49,5.93-26a34.77,34.77,0,0,0-4.53-7.1c-1.92-2.49-3.92-4.91-6-7.29s-4.31-4.88-6.55-7.23a84.55,84.55,0,0,1-6.12-6.44c-.77-1-2.51,0-1.73,1a57,57,0,0,0,4.61,5c1.9,1.91,3.74,3.89,5.55,5.89a135.71,135.71,0,0,1,10.2,12.38,22.86,22.86,0,0,1,3.46,6.57,16.66,16.66,0,0,1,.26,7.91,30.65,30.65,0,0,1-5,12,21.62,21.62,0,0,1-9.56,7.88c-4.83,1.91-10.42,1.57-15.53,1.77-5.5.22-11,.41-16.5.44a161.14,161.14,0,0,1-16.45-.49,15.46,15.46,0,0,1-7.63-2.69,33.45,33.45,0,0,1-5.48-5.29,81.83,81.83,0,0,0-12.21-11.47c-1-.77-2,1-1,1.73Z" transform="translate(-54.06 -151.74)"/><path d="M506.92,593.86q7.74,8.64,15.84,17c.9.93,2.31-.49,1.42-1.41q-8.1-8.32-15.84-17c-.86-1-2.27.46-1.42,1.42Z" transform="translate(-54.06 -151.74)"/><path d="M535.35,499.6A31.65,31.65,0,0,1,542,522.12c-.12,1.28,1.88,1.27,2,0a33.63,33.63,0,0,0-7.2-23.93c-.8-1-2.2.42-1.41,1.41Z" transform="translate(-54.06 -151.74)"/><path d="M542.2,523.47c4.29,2.45,5.78,7.73,6.43,12.32a23.89,23.89,0,0,1-3.18,16.27c-2.86,4.63-6.86,8.48-10.58,12.41l-13,13.78c-4.53,4.78-8.88,10-14.17,14-1,.76,0,2.5,1,1.73,5.05-3.79,9.22-8.65,13.55-13.22l13.72-14.51c4-4.27,8.41-8.45,11.46-13.52a25.62,25.62,0,0,0,3.27-16.61c-.67-5.4-2.43-11.49-7.46-14.37a1,1,0,0,0-1,1.73Z" transform="translate(-54.06 -151.74)"/><path d="M80.9,538.43a21.36,21.36,0,0,1,5.68-5.73c2.55-1.51,6.14-.85,9-.63,7.29.59,14.69.34,22,.4l45.26.43,25.85.25a1,1,0,0,0,0-2l-47.24-.46L118,530.48c-7.63-.07-15.32.16-22.92-.44-3.11-.25-6.73-.73-9.54.93-2.61,1.55-4.6,4.07-6.4,6.45-.77,1,1,2,1.73,1Z" transform="translate(-54.06 -151.74)"/><path d="M189.17,533.05c6.38,0,10.38,7.72,11,13.22a17.87,17.87,0,0,1-6,15.32c-4.8,4.24-11.38,5-17.53,5.06-7,0-14.11-.27-21.17-.24q-12.39,0-24.77.65c-1.28.06-1.28,2.06,0,2q12.26-.6,24.53-.65,6.06,0,12.14.08c3.72.06,7.46.25,11.19.12,6.49-.22,13.09-1.64,17.84-6.37a19.73,19.73,0,0,0,5.65-16.63c-.88-6.41-5.6-14.55-12.91-14.56a1,1,0,0,0,0,2Z" transform="translate(-54.06 -151.74)"/><path d="M129.89,568.38c.61.41.19,2.84.18,3.46L130,576l-.13,8a1,1,0,0,0,.74,1,13.8,13.8,0,0,0,6,.53c2.4-.14,4.79-.25,7.19-.33q7.06-.24,14.14-.12c4.71.07,9.42.27,14.12.57,4.11.27,8.93.18,12.06,3.29a21.44,21.44,0,0,1,5.8,11.34c.61,4.33-1.64,8.25-4.14,11.62-5.35,7.22-15.05,7.5-23.21,7.41q-16-.18-32-.4a1,1,0,0,0,0,2l30.84.38c8.41.11,18.13.11,24.46-6.38a26.73,26.73,0,0,0,3.81-5.32,16.13,16.13,0,0,0,2.26-5.82c.62-4.29-1.09-8.55-3.29-12.15a18.24,18.24,0,0,0-4-4.93,12.38,12.38,0,0,0-5.55-2.36c-4.62-.85-9.48-.87-14.16-1.06q-8.55-.34-17.11-.17c-2.81,0-5.62.15-8.43.28s-5.61.69-8.16-.3l.73,1L132,574c0-1.58.12-3.18.07-4.76a2.9,2.9,0,0,0-1.21-2.6c-1.07-.73-2.07,1-1,1.72Z" transform="translate(-54.06 -151.74)"/><path d="M129.64,619.78c-.78,4.51-.06,9.13-.17,13.68-.1,4.32-.13,9.32-2.4,13.13a17.7,17.7,0,0,1-3.93,4.48,6.79,6.79,0,0,1-2.85,1.6,21.27,21.27,0,0,1-3.66.3c-4.77.19-9.54.06-14.31,0-2.62,0-5.25-.06-7.87,0s-5.15.58-7.58-.45c-1.18-.5-1.7,1.44-.53,1.93,2.18.92,4.44.7,6.74.57,2.5-.14,5-.11,7.52-.08,5.18,0,10.36.23,15.54,0,2.18-.08,4.55,0,6.51-1.11a17.56,17.56,0,0,0,4.61-4.11c2.93-3.59,3.63-7.71,4-12.21a72.19,72.19,0,0,0,.19-8.45,43.13,43.13,0,0,1,.12-8.8c.22-1.26-1.71-1.8-1.92-.53Z" transform="translate(-54.06 -151.74)"/><path d="M79.1,538.17c-1.44,16.52-1.19,33.12-.85,49.68S79,621,77.89,637.54c-.25,3.83-.24,7.62,1.73,11a14.26,14.26,0,0,0,7.7,6.34c1.22.43,1.74-1.5.53-1.93A12.19,12.19,0,0,1,81,646.93c-1.62-3.23-1.27-6.85-1-10.34.51-7.86.68-15.74.67-23.61,0-15.93-.7-31.85-.63-47.78,0-9,.33-18,1.11-27,.11-1.28-1.89-1.27-2,0Z" transform="translate(-54.06 -151.74)"/></g></svg>